<?xml version="1.0" encoding="UTF-8"?>
<svg width="39px" height="17px" viewBox="0 0 39 17" version="1.1" xmlns="http://www.w3.org/2000/svg" xmlns:xlink="http://www.w3.org/1999/xlink">
    <title>Fill 1</title>
    <g id="Page-2" stroke="none" stroke-width="1" fill="none" fill-rule="evenodd">
        <path d="M34.665,-0.9044 C35.427,-0.9044 36.143,-0.6074 36.682,-0.0694 C37.221,0.4696 37.517,1.1856 37.517,1.9476 C37.517,2.7096 37.221,3.4266 36.682,3.9646 L36.681,3.9656 L36.681,3.9666 L28.999,11.6866 C28.696,11.9916 28.697,12.4846 29.001,12.7876 C29.153,12.9386 29.352,13.0136 29.55,13.0136 C29.75,13.0136 29.95,12.9376 30.102,12.7846 L37.782,5.0656 L37.783,5.0646 L37.783,5.0636 L37.784,5.0636 C38.615,4.2306 39.073,3.1246 39.073,1.9476 C39.073,0.7706 38.615,-0.3364 37.782,-1.1694 C36.949,-2.0014 35.842,-2.4604 34.665,-2.4604 C33.488,-2.4604 32.38,-2.0014 31.548,-1.1694 L31.547,-1.1684 L11.063,19.4196 C10.524,19.9576 9.808,20.2546 9.046,20.2546 C8.284,20.2546 7.568,19.9576 7.029,19.4196 C6.49,18.8806 6.194,18.1646 6.194,17.4026 C6.194,16.6406 6.49,15.9236 7.029,15.3856 L7.029,15.3846 L7.03,15.3836 L30.082,-7.7714 C30.385,-8.0764 30.384,-8.5684 30.08,-8.8714 C29.775,-9.1744 29.283,-9.1734 28.979,-8.8694 L5.928,14.2866 C5.927,14.2866 5.926,14.2876 5.926,14.2876 C5.095,15.1206 4.638,16.2266 4.638,17.4026 C4.638,18.5796 5.096,19.6866 5.929,20.5196 C6.761,21.3516 7.868,21.8106 9.046,21.8106 C10.223,21.8106 11.33,21.3516 12.163,20.5196 L12.164,20.5186 L32.648,-0.0694 C33.187,-0.6074 33.903,-0.9044 34.665,-0.9044" id="Fill-1" fill="#000000" transform="translate(21.855500, 6.356287) rotate(45.000000) translate(-21.855500, -6.356287) "></path>
    </g>
</svg>